<mxfile host="app.diagrams.net" modified="2023-10-19T16:21:58.040Z" agent="Mozilla/5.0 (Windows NT 10.0; Win64; x64) AppleWebKit/537.36 (KHTML, like Gecko) Chrome/118.0.0.0 Safari/537.36" etag="yGbVIY9J3BEPDHoNzudL" version="22.0.5" type="device">
  <diagram name="Página-1" id="UPpTO_jLTLiDrqp94H_z">
    <mxGraphModel dx="1509" dy="823" grid="1" gridSize="10" guides="1" tooltips="1" connect="1" arrows="1" fold="1" page="1" pageScale="1" pageWidth="2000" pageHeight="1169" math="0" shadow="0">
      <root>
        <mxCell id="0" />
        <mxCell id="1" parent="0" />
        <mxCell id="eUGG6sl7J-V_EFNQKQrx-1" value="Clientes" style="rounded=0;whiteSpace=wrap;html=1;" parent="1" vertex="1">
          <mxGeometry x="440" y="320" width="120" height="40" as="geometry" />
        </mxCell>
        <mxCell id="eUGG6sl7J-V_EFNQKQrx-3" value="Realizan" style="rhombus;whiteSpace=wrap;html=1;rotation=0;" parent="1" vertex="1">
          <mxGeometry x="600" y="300" width="80" height="80" as="geometry" />
        </mxCell>
        <mxCell id="eUGG6sl7J-V_EFNQKQrx-4" value="&lt;u&gt;Número Cliente&lt;/u&gt;" style="ellipse;whiteSpace=wrap;html=1;" parent="1" vertex="1">
          <mxGeometry x="290" y="220" width="90" height="40" as="geometry" />
        </mxCell>
        <mxCell id="eUGG6sl7J-V_EFNQKQrx-5" value="Nombre" style="ellipse;whiteSpace=wrap;html=1;" parent="1" vertex="1">
          <mxGeometry x="290" y="270" width="90" height="40" as="geometry" />
        </mxCell>
        <mxCell id="eUGG6sl7J-V_EFNQKQrx-6" value="Apellidos" style="ellipse;whiteSpace=wrap;html=1;" parent="1" vertex="1">
          <mxGeometry x="290" y="320" width="90" height="40" as="geometry" />
        </mxCell>
        <mxCell id="eUGG6sl7J-V_EFNQKQrx-7" value="Teléfono" style="ellipse;whiteSpace=wrap;html=1;" parent="1" vertex="1">
          <mxGeometry x="290" y="370" width="90" height="40" as="geometry" />
        </mxCell>
        <mxCell id="eUGG6sl7J-V_EFNQKQrx-8" value="Correo" style="ellipse;whiteSpace=wrap;html=1;" parent="1" vertex="1">
          <mxGeometry x="290" y="420" width="90" height="40" as="geometry" />
        </mxCell>
        <mxCell id="eUGG6sl7J-V_EFNQKQrx-9" value="" style="endArrow=none;html=1;rounded=0;entryX=0;entryY=0.5;entryDx=0;entryDy=0;exitX=1;exitY=0.5;exitDx=0;exitDy=0;" parent="1" source="eUGG6sl7J-V_EFNQKQrx-3" target="eUGG6sl7J-V_EFNQKQrx-18" edge="1">
          <mxGeometry width="50" height="50" relative="1" as="geometry">
            <mxPoint x="680" y="340" as="sourcePoint" />
            <mxPoint x="720" y="340" as="targetPoint" />
          </mxGeometry>
        </mxCell>
        <mxCell id="eUGG6sl7J-V_EFNQKQrx-11" value="" style="endArrow=none;html=1;rounded=0;entryX=0;entryY=0.5;entryDx=0;entryDy=0;exitX=1;exitY=0.5;exitDx=0;exitDy=0;" parent="1" source="eUGG6sl7J-V_EFNQKQrx-4" target="eUGG6sl7J-V_EFNQKQrx-1" edge="1">
          <mxGeometry width="50" height="50" relative="1" as="geometry">
            <mxPoint x="410" y="320" as="sourcePoint" />
            <mxPoint x="460" y="270" as="targetPoint" />
          </mxGeometry>
        </mxCell>
        <mxCell id="eUGG6sl7J-V_EFNQKQrx-13" value="" style="endArrow=none;html=1;rounded=0;entryX=1;entryY=0.5;entryDx=0;entryDy=0;" parent="1" target="eUGG6sl7J-V_EFNQKQrx-5" edge="1">
          <mxGeometry width="50" height="50" relative="1" as="geometry">
            <mxPoint x="440" y="340" as="sourcePoint" />
            <mxPoint x="460" y="450" as="targetPoint" />
          </mxGeometry>
        </mxCell>
        <mxCell id="eUGG6sl7J-V_EFNQKQrx-14" value="" style="endArrow=none;html=1;rounded=0;entryX=1;entryY=0.5;entryDx=0;entryDy=0;" parent="1" target="eUGG6sl7J-V_EFNQKQrx-6" edge="1">
          <mxGeometry width="50" height="50" relative="1" as="geometry">
            <mxPoint x="440" y="340" as="sourcePoint" />
            <mxPoint x="470" y="460" as="targetPoint" />
          </mxGeometry>
        </mxCell>
        <mxCell id="eUGG6sl7J-V_EFNQKQrx-15" value="" style="endArrow=none;html=1;rounded=0;entryX=1;entryY=0.5;entryDx=0;entryDy=0;exitX=0;exitY=0.5;exitDx=0;exitDy=0;" parent="1" source="eUGG6sl7J-V_EFNQKQrx-1" target="eUGG6sl7J-V_EFNQKQrx-7" edge="1">
          <mxGeometry width="50" height="50" relative="1" as="geometry">
            <mxPoint x="440" y="370" as="sourcePoint" />
            <mxPoint x="480" y="470" as="targetPoint" />
          </mxGeometry>
        </mxCell>
        <mxCell id="eUGG6sl7J-V_EFNQKQrx-16" value="" style="endArrow=none;html=1;rounded=0;entryX=1;entryY=0.5;entryDx=0;entryDy=0;exitX=0;exitY=0.5;exitDx=0;exitDy=0;" parent="1" source="eUGG6sl7J-V_EFNQKQrx-1" target="eUGG6sl7J-V_EFNQKQrx-8" edge="1">
          <mxGeometry width="50" height="50" relative="1" as="geometry">
            <mxPoint x="450" y="380" as="sourcePoint" />
            <mxPoint x="490" y="480" as="targetPoint" />
          </mxGeometry>
        </mxCell>
        <mxCell id="eUGG6sl7J-V_EFNQKQrx-17" value="" style="endArrow=none;html=1;rounded=0;" parent="1" target="eUGG6sl7J-V_EFNQKQrx-3" edge="1">
          <mxGeometry width="50" height="50" relative="1" as="geometry">
            <mxPoint x="560" y="340" as="sourcePoint" />
            <mxPoint x="600" y="440" as="targetPoint" />
          </mxGeometry>
        </mxCell>
        <mxCell id="eUGG6sl7J-V_EFNQKQrx-18" value="Pedidos" style="rounded=0;whiteSpace=wrap;html=1;" parent="1" vertex="1">
          <mxGeometry x="720" y="320" width="120" height="40" as="geometry" />
        </mxCell>
        <mxCell id="eUGG6sl7J-V_EFNQKQrx-19" value="&lt;u&gt;Número Pedido&lt;/u&gt;" style="ellipse;whiteSpace=wrap;html=1;" parent="1" vertex="1">
          <mxGeometry x="665" y="200" width="90" height="40" as="geometry" />
        </mxCell>
        <mxCell id="eUGG6sl7J-V_EFNQKQrx-20" value="Fecha" style="ellipse;whiteSpace=wrap;html=1;" parent="1" vertex="1">
          <mxGeometry x="805" y="200" width="90" height="40" as="geometry" />
        </mxCell>
        <mxCell id="85_yPqX-MjxxEh-DZCOf-3" value="" style="endArrow=none;html=1;rounded=0;entryX=1;entryY=0.5;entryDx=0;entryDy=0;exitX=0;exitY=0.5;exitDx=0;exitDy=0;" parent="1" source="85_yPqX-MjxxEh-DZCOf-4" target="eUGG6sl7J-V_EFNQKQrx-18" edge="1">
          <mxGeometry width="50" height="50" relative="1" as="geometry">
            <mxPoint x="870" y="370" as="sourcePoint" />
            <mxPoint x="830" y="500" as="targetPoint" />
          </mxGeometry>
        </mxCell>
        <mxCell id="85_yPqX-MjxxEh-DZCOf-4" value="ocupa" style="rhombus;whiteSpace=wrap;html=1;rotation=0;" parent="1" vertex="1">
          <mxGeometry x="880" y="300" width="80" height="80" as="geometry" />
        </mxCell>
        <mxCell id="85_yPqX-MjxxEh-DZCOf-5" value="Líneas de detalle" style="rounded=0;whiteSpace=wrap;html=1;" parent="1" vertex="1">
          <mxGeometry x="1000" y="320" width="120" height="40" as="geometry" />
        </mxCell>
        <mxCell id="85_yPqX-MjxxEh-DZCOf-6" value="" style="endArrow=none;html=1;rounded=0;entryX=1;entryY=0.5;entryDx=0;entryDy=0;exitX=0;exitY=0.5;exitDx=0;exitDy=0;" parent="1" source="85_yPqX-MjxxEh-DZCOf-5" target="85_yPqX-MjxxEh-DZCOf-4" edge="1">
          <mxGeometry width="50" height="50" relative="1" as="geometry">
            <mxPoint x="890" y="350" as="sourcePoint" />
            <mxPoint x="850" y="350" as="targetPoint" />
          </mxGeometry>
        </mxCell>
        <mxCell id="85_yPqX-MjxxEh-DZCOf-7" value="" style="endArrow=none;html=1;rounded=0;entryX=0;entryY=0.5;entryDx=0;entryDy=0;exitX=1;exitY=0.5;exitDx=0;exitDy=0;" parent="1" source="85_yPqX-MjxxEh-DZCOf-28" target="85_yPqX-MjxxEh-DZCOf-90" edge="1">
          <mxGeometry width="50" height="50" relative="1" as="geometry">
            <mxPoint x="580" y="600" as="sourcePoint" />
            <mxPoint x="630" y="550" as="targetPoint" />
          </mxGeometry>
        </mxCell>
        <mxCell id="85_yPqX-MjxxEh-DZCOf-8" value="" style="endArrow=none;html=1;rounded=0;entryX=0.5;entryY=1;entryDx=0;entryDy=0;exitX=0.5;exitY=0;exitDx=0;exitDy=0;" parent="1" source="eUGG6sl7J-V_EFNQKQrx-18" target="eUGG6sl7J-V_EFNQKQrx-19" edge="1">
          <mxGeometry width="50" height="50" relative="1" as="geometry">
            <mxPoint x="670" y="320" as="sourcePoint" />
            <mxPoint x="720" y="270" as="targetPoint" />
          </mxGeometry>
        </mxCell>
        <mxCell id="85_yPqX-MjxxEh-DZCOf-9" value="" style="endArrow=none;html=1;rounded=0;entryX=0.5;entryY=1;entryDx=0;entryDy=0;exitX=0.5;exitY=0;exitDx=0;exitDy=0;" parent="1" source="eUGG6sl7J-V_EFNQKQrx-18" target="eUGG6sl7J-V_EFNQKQrx-20" edge="1">
          <mxGeometry width="50" height="50" relative="1" as="geometry">
            <mxPoint x="800" y="570" as="sourcePoint" />
            <mxPoint x="850" y="520" as="targetPoint" />
          </mxGeometry>
        </mxCell>
        <mxCell id="85_yPqX-MjxxEh-DZCOf-11" value="Cantidad" style="ellipse;whiteSpace=wrap;html=1;" parent="1" vertex="1">
          <mxGeometry x="1060" y="428" width="90" height="40" as="geometry" />
        </mxCell>
        <mxCell id="85_yPqX-MjxxEh-DZCOf-13" value="" style="endArrow=none;html=1;rounded=0;exitX=0.5;exitY=1;exitDx=0;exitDy=0;entryX=0.5;entryY=0;entryDx=0;entryDy=0;" parent="1" source="85_yPqX-MjxxEh-DZCOf-5" target="85_yPqX-MjxxEh-DZCOf-11" edge="1">
          <mxGeometry width="50" height="50" relative="1" as="geometry">
            <mxPoint x="1150" y="370" as="sourcePoint" />
            <mxPoint x="1200" y="320" as="targetPoint" />
          </mxGeometry>
        </mxCell>
        <mxCell id="85_yPqX-MjxxEh-DZCOf-15" value="llevan a" style="rhombus;whiteSpace=wrap;html=1;rotation=0;" parent="1" vertex="1">
          <mxGeometry x="1240" y="242" width="80" height="80" as="geometry" />
        </mxCell>
        <mxCell id="85_yPqX-MjxxEh-DZCOf-16" value="Albaranes" style="rounded=0;whiteSpace=wrap;html=1;" parent="1" vertex="1">
          <mxGeometry x="1360" y="262" width="120" height="40" as="geometry" />
        </mxCell>
        <mxCell id="85_yPqX-MjxxEh-DZCOf-17" value="" style="endArrow=none;html=1;rounded=0;entryX=0;entryY=0.5;entryDx=0;entryDy=0;exitX=1;exitY=0.5;exitDx=0;exitDy=0;" parent="1" source="85_yPqX-MjxxEh-DZCOf-5" target="85_yPqX-MjxxEh-DZCOf-15" edge="1">
          <mxGeometry width="50" height="50" relative="1" as="geometry">
            <mxPoint x="1110" y="420" as="sourcePoint" />
            <mxPoint x="1160" y="370" as="targetPoint" />
          </mxGeometry>
        </mxCell>
        <mxCell id="85_yPqX-MjxxEh-DZCOf-18" value="" style="endArrow=none;html=1;rounded=0;exitX=1;exitY=0.5;exitDx=0;exitDy=0;entryX=0;entryY=0.5;entryDx=0;entryDy=0;" parent="1" source="85_yPqX-MjxxEh-DZCOf-15" target="85_yPqX-MjxxEh-DZCOf-16" edge="1">
          <mxGeometry width="50" height="50" relative="1" as="geometry">
            <mxPoint x="1300" y="357" as="sourcePoint" />
            <mxPoint x="1350" y="307" as="targetPoint" />
          </mxGeometry>
        </mxCell>
        <mxCell id="85_yPqX-MjxxEh-DZCOf-19" value="&lt;u&gt;Cliente que lo recibe&lt;/u&gt;" style="ellipse;whiteSpace=wrap;html=1;" parent="1" vertex="1">
          <mxGeometry x="1450" y="172" width="90" height="40" as="geometry" />
        </mxCell>
        <mxCell id="85_yPqX-MjxxEh-DZCOf-20" value="Fecha de entrega" style="ellipse;whiteSpace=wrap;html=1;" parent="1" vertex="1">
          <mxGeometry x="1300" y="172" width="90" height="40" as="geometry" />
        </mxCell>
        <mxCell id="85_yPqX-MjxxEh-DZCOf-21" value="Dirección de entrega" style="ellipse;whiteSpace=wrap;html=1;" parent="1" vertex="1">
          <mxGeometry x="1375" y="122" width="90" height="40" as="geometry" />
        </mxCell>
        <mxCell id="85_yPqX-MjxxEh-DZCOf-22" value="" style="endArrow=none;html=1;rounded=0;entryX=1;entryY=0.5;entryDx=0;entryDy=0;exitX=0.5;exitY=0;exitDx=0;exitDy=0;" parent="1" source="85_yPqX-MjxxEh-DZCOf-16" target="85_yPqX-MjxxEh-DZCOf-20" edge="1">
          <mxGeometry width="50" height="50" relative="1" as="geometry">
            <mxPoint x="870" y="502" as="sourcePoint" />
            <mxPoint x="920" y="452" as="targetPoint" />
          </mxGeometry>
        </mxCell>
        <mxCell id="85_yPqX-MjxxEh-DZCOf-23" value="" style="endArrow=none;html=1;rounded=0;entryX=0.5;entryY=1;entryDx=0;entryDy=0;" parent="1" source="85_yPqX-MjxxEh-DZCOf-16" target="85_yPqX-MjxxEh-DZCOf-21" edge="1">
          <mxGeometry width="50" height="50" relative="1" as="geometry">
            <mxPoint x="1270" y="412" as="sourcePoint" />
            <mxPoint x="1320" y="362" as="targetPoint" />
          </mxGeometry>
        </mxCell>
        <mxCell id="85_yPqX-MjxxEh-DZCOf-24" value="" style="endArrow=none;html=1;rounded=0;entryX=0;entryY=0.5;entryDx=0;entryDy=0;exitX=0.5;exitY=0;exitDx=0;exitDy=0;" parent="1" source="85_yPqX-MjxxEh-DZCOf-16" target="85_yPqX-MjxxEh-DZCOf-19" edge="1">
          <mxGeometry width="50" height="50" relative="1" as="geometry">
            <mxPoint x="870" y="502" as="sourcePoint" />
            <mxPoint x="920" y="452" as="targetPoint" />
          </mxGeometry>
        </mxCell>
        <mxCell id="85_yPqX-MjxxEh-DZCOf-25" value="llevan a" style="rhombus;whiteSpace=wrap;html=1;rotation=0;" parent="1" vertex="1">
          <mxGeometry x="1240" y="350" width="80" height="80" as="geometry" />
        </mxCell>
        <mxCell id="85_yPqX-MjxxEh-DZCOf-26" value="" style="endArrow=none;html=1;rounded=0;exitX=0;exitY=0.5;exitDx=0;exitDy=0;entryX=1;entryY=0.5;entryDx=0;entryDy=0;" parent="1" source="85_yPqX-MjxxEh-DZCOf-25" target="85_yPqX-MjxxEh-DZCOf-5" edge="1">
          <mxGeometry width="50" height="50" relative="1" as="geometry">
            <mxPoint x="1440" y="282" as="sourcePoint" />
            <mxPoint x="1420" y="352" as="targetPoint" />
          </mxGeometry>
        </mxCell>
        <mxCell id="85_yPqX-MjxxEh-DZCOf-27" value="" style="endArrow=none;html=1;rounded=0;entryX=1;entryY=0.5;entryDx=0;entryDy=0;exitX=0;exitY=0.5;exitDx=0;exitDy=0;" parent="1" source="85_yPqX-MjxxEh-DZCOf-28" target="85_yPqX-MjxxEh-DZCOf-25" edge="1">
          <mxGeometry width="50" height="50" relative="1" as="geometry">
            <mxPoint x="590" y="610" as="sourcePoint" />
            <mxPoint x="640" y="560" as="targetPoint" />
          </mxGeometry>
        </mxCell>
        <mxCell id="85_yPqX-MjxxEh-DZCOf-28" value="Facturas" style="rounded=0;whiteSpace=wrap;html=1;" parent="1" vertex="1">
          <mxGeometry x="1360" y="370" width="120" height="40" as="geometry" />
        </mxCell>
        <mxCell id="85_yPqX-MjxxEh-DZCOf-29" value="N:M" style="text;html=1;align=center;verticalAlign=middle;resizable=0;points=[];autosize=1;strokeColor=none;fillColor=none;" parent="1" vertex="1">
          <mxGeometry x="895" y="272" width="50" height="30" as="geometry" />
        </mxCell>
        <mxCell id="85_yPqX-MjxxEh-DZCOf-30" value="N:M" style="text;html=1;align=center;verticalAlign=middle;resizable=0;points=[];autosize=1;strokeColor=none;fillColor=none;" parent="1" vertex="1">
          <mxGeometry x="615" y="272" width="50" height="30" as="geometry" />
        </mxCell>
        <mxCell id="85_yPqX-MjxxEh-DZCOf-79" value="Descriptor" style="ellipse;whiteSpace=wrap;html=1;" parent="1" vertex="1">
          <mxGeometry x="630" y="600" width="90" height="40" as="geometry" />
        </mxCell>
        <mxCell id="85_yPqX-MjxxEh-DZCOf-80" value="Identificador de familia" style="ellipse;whiteSpace=wrap;html=1;" parent="1" vertex="1">
          <mxGeometry x="735" y="630" width="90" height="40" as="geometry" />
        </mxCell>
        <mxCell id="85_yPqX-MjxxEh-DZCOf-81" value="&lt;u&gt;Identificador de modelo&lt;/u&gt;" style="ellipse;whiteSpace=wrap;html=1;" parent="1" vertex="1">
          <mxGeometry x="840" y="600" width="90" height="40" as="geometry" />
        </mxCell>
        <mxCell id="85_yPqX-MjxxEh-DZCOf-88" value="&lt;u&gt;Número de factura&lt;/u&gt;" style="ellipse;whiteSpace=wrap;html=1;" parent="1" vertex="1">
          <mxGeometry x="1530" y="290" width="90" height="40" as="geometry" />
        </mxCell>
        <mxCell id="85_yPqX-MjxxEh-DZCOf-89" value="Fecha cobro" style="ellipse;whiteSpace=wrap;html=1;" parent="1" vertex="1">
          <mxGeometry x="1530" y="370" width="90" height="40" as="geometry" />
        </mxCell>
        <mxCell id="85_yPqX-MjxxEh-DZCOf-90" value="Modo Pago" style="ellipse;whiteSpace=wrap;html=1;" parent="1" vertex="1">
          <mxGeometry x="1530" y="448" width="90" height="40" as="geometry" />
        </mxCell>
        <mxCell id="85_yPqX-MjxxEh-DZCOf-91" value="" style="endArrow=none;html=1;rounded=0;entryX=0;entryY=0.5;entryDx=0;entryDy=0;exitX=1;exitY=0.5;exitDx=0;exitDy=0;" parent="1" source="85_yPqX-MjxxEh-DZCOf-28" target="85_yPqX-MjxxEh-DZCOf-89" edge="1">
          <mxGeometry width="50" height="50" relative="1" as="geometry">
            <mxPoint x="590" y="610" as="sourcePoint" />
            <mxPoint x="640" y="560" as="targetPoint" />
          </mxGeometry>
        </mxCell>
        <mxCell id="85_yPqX-MjxxEh-DZCOf-92" value="" style="endArrow=none;html=1;rounded=0;entryX=0;entryY=0.5;entryDx=0;entryDy=0;exitX=1;exitY=0.5;exitDx=0;exitDy=0;" parent="1" source="85_yPqX-MjxxEh-DZCOf-28" target="85_yPqX-MjxxEh-DZCOf-88" edge="1">
          <mxGeometry width="50" height="50" relative="1" as="geometry">
            <mxPoint x="1450" y="360" as="sourcePoint" />
            <mxPoint x="1500" y="310" as="targetPoint" />
          </mxGeometry>
        </mxCell>
        <mxCell id="85_yPqX-MjxxEh-DZCOf-97" value="N:M" style="text;html=1;align=center;verticalAlign=middle;resizable=0;points=[];autosize=1;strokeColor=none;fillColor=none;" parent="1" vertex="1">
          <mxGeometry x="1255" y="205" width="50" height="30" as="geometry" />
        </mxCell>
        <mxCell id="85_yPqX-MjxxEh-DZCOf-98" value="N:M" style="text;html=1;align=center;verticalAlign=middle;resizable=0;points=[];autosize=1;strokeColor=none;fillColor=none;" parent="1" vertex="1">
          <mxGeometry x="1255" y="438" width="50" height="30" as="geometry" />
        </mxCell>
        <mxCell id="8LD0LGl8o5ZMPr9Q9NME-1" value="Artículos" style="rounded=0;whiteSpace=wrap;html=1;" vertex="1" parent="1">
          <mxGeometry x="720" y="520" width="120" height="40" as="geometry" />
        </mxCell>
        <mxCell id="8LD0LGl8o5ZMPr9Q9NME-2" value="llevan" style="rhombus;whiteSpace=wrap;html=1;rotation=0;" vertex="1" parent="1">
          <mxGeometry x="740" y="398" width="80" height="80" as="geometry" />
        </mxCell>
        <mxCell id="8LD0LGl8o5ZMPr9Q9NME-3" value="" style="endArrow=none;html=1;rounded=0;entryX=0.5;entryY=1;entryDx=0;entryDy=0;exitX=0.5;exitY=0;exitDx=0;exitDy=0;" edge="1" parent="1" source="8LD0LGl8o5ZMPr9Q9NME-2" target="eUGG6sl7J-V_EFNQKQrx-18">
          <mxGeometry width="50" height="50" relative="1" as="geometry">
            <mxPoint x="700" y="450" as="sourcePoint" />
            <mxPoint x="750" y="400" as="targetPoint" />
          </mxGeometry>
        </mxCell>
        <mxCell id="8LD0LGl8o5ZMPr9Q9NME-4" value="" style="endArrow=none;html=1;rounded=0;entryX=0.5;entryY=1;entryDx=0;entryDy=0;exitX=0.5;exitY=0;exitDx=0;exitDy=0;" edge="1" parent="1" source="8LD0LGl8o5ZMPr9Q9NME-1" target="8LD0LGl8o5ZMPr9Q9NME-2">
          <mxGeometry width="50" height="50" relative="1" as="geometry">
            <mxPoint x="680" y="540" as="sourcePoint" />
            <mxPoint x="730" y="490" as="targetPoint" />
          </mxGeometry>
        </mxCell>
        <mxCell id="8LD0LGl8o5ZMPr9Q9NME-5" value="" style="endArrow=none;html=1;rounded=0;entryX=0.5;entryY=1;entryDx=0;entryDy=0;exitX=0.5;exitY=0;exitDx=0;exitDy=0;" edge="1" parent="1" source="85_yPqX-MjxxEh-DZCOf-79" target="8LD0LGl8o5ZMPr9Q9NME-1">
          <mxGeometry width="50" height="50" relative="1" as="geometry">
            <mxPoint x="580" y="630" as="sourcePoint" />
            <mxPoint x="630" y="580" as="targetPoint" />
          </mxGeometry>
        </mxCell>
        <mxCell id="8LD0LGl8o5ZMPr9Q9NME-6" value="" style="endArrow=none;html=1;rounded=0;entryX=0.5;entryY=1;entryDx=0;entryDy=0;exitX=0.5;exitY=0;exitDx=0;exitDy=0;" edge="1" parent="1" source="85_yPqX-MjxxEh-DZCOf-80" target="8LD0LGl8o5ZMPr9Q9NME-1">
          <mxGeometry width="50" height="50" relative="1" as="geometry">
            <mxPoint x="685" y="610" as="sourcePoint" />
            <mxPoint x="790" y="570" as="targetPoint" />
          </mxGeometry>
        </mxCell>
        <mxCell id="8LD0LGl8o5ZMPr9Q9NME-7" value="" style="endArrow=none;html=1;rounded=0;entryX=0.5;entryY=1;entryDx=0;entryDy=0;exitX=0.5;exitY=0;exitDx=0;exitDy=0;" edge="1" parent="1" source="85_yPqX-MjxxEh-DZCOf-81" target="8LD0LGl8o5ZMPr9Q9NME-1">
          <mxGeometry width="50" height="50" relative="1" as="geometry">
            <mxPoint x="790" y="640" as="sourcePoint" />
            <mxPoint x="790" y="570" as="targetPoint" />
          </mxGeometry>
        </mxCell>
        <mxCell id="8LD0LGl8o5ZMPr9Q9NME-8" value="Refefencian" style="rhombus;whiteSpace=wrap;html=1;rotation=0;" vertex="1" parent="1">
          <mxGeometry x="960" y="408" width="80" height="80" as="geometry" />
        </mxCell>
        <mxCell id="8LD0LGl8o5ZMPr9Q9NME-9" value="" style="endArrow=none;html=1;rounded=0;entryX=0.5;entryY=1;entryDx=0;entryDy=0;exitX=1;exitY=0;exitDx=0;exitDy=0;" edge="1" parent="1" source="8LD0LGl8o5ZMPr9Q9NME-8" target="85_yPqX-MjxxEh-DZCOf-5">
          <mxGeometry width="50" height="50" relative="1" as="geometry">
            <mxPoint x="1010" y="590" as="sourcePoint" />
            <mxPoint x="1060" y="540" as="targetPoint" />
          </mxGeometry>
        </mxCell>
        <mxCell id="8LD0LGl8o5ZMPr9Q9NME-10" value="" style="endArrow=none;html=1;rounded=0;entryX=0;entryY=1;entryDx=0;entryDy=0;exitX=0.5;exitY=0;exitDx=0;exitDy=0;" edge="1" parent="1" source="8LD0LGl8o5ZMPr9Q9NME-1" target="8LD0LGl8o5ZMPr9Q9NME-8">
          <mxGeometry width="50" height="50" relative="1" as="geometry">
            <mxPoint x="1010" y="418" as="sourcePoint" />
            <mxPoint x="1070" y="370" as="targetPoint" />
          </mxGeometry>
        </mxCell>
        <mxCell id="8LD0LGl8o5ZMPr9Q9NME-11" value="N:M" style="text;html=1;align=center;verticalAlign=middle;resizable=0;points=[];autosize=1;strokeColor=none;fillColor=none;" vertex="1" parent="1">
          <mxGeometry x="700" y="425" width="50" height="30" as="geometry" />
        </mxCell>
        <mxCell id="8LD0LGl8o5ZMPr9Q9NME-14" value="N:M" style="text;html=1;align=center;verticalAlign=middle;resizable=0;points=[];autosize=1;strokeColor=none;fillColor=none;" vertex="1" parent="1">
          <mxGeometry x="975" y="488" width="50" height="30" as="geometry" />
        </mxCell>
      </root>
    </mxGraphModel>
  </diagram>
</mxfile>
